<svg width="109" height="109" viewBox="0 0 109 109" fill="none" xmlns="http://www.w3.org/2000/svg">
<g clip-path="url(#clip0_8_2)">
<path d="M105.115 30.3963C104.704 30.3963 104.282 30.4555 103.861 30.5712L99.0985 31.8829L94.1519 19.8339C92.7511 16.4208 88.6091 13.6441 84.9193 13.6441H38.6306C34.9413 13.6441 30.7988 16.4208 29.3976 19.8339L24.4582 31.8664L19.7545 30.5712C19.3334 30.4555 18.912 30.3963 18.5006 30.3963C16.2497 30.3963 14.6162 32.116 14.6162 34.4856V37.2935C14.6162 37.4084 14.6255 37.5212 14.6335 37.6348C12.6727 38.8709 10.8323 40.327 9.15319 42.0061C3.25096 47.9079 0 55.7562 0 64.104C0 72.4523 3.25096 80.3001 9.15361 86.2019C15.0567 92.1046 22.9045 95.3559 31.2519 95.3559C39.5994 95.3559 47.4476 92.105 53.3503 86.2019C56.7908 82.7618 59.3226 78.6573 60.8429 74.1808H89.9558V80.1582C89.9558 82.9239 92.2059 85.174 94.9716 85.174H101.522C104.288 85.174 106.538 82.9239 106.538 80.1582V56.2216C106.538 52.7932 105.479 47.4244 104.177 44.2532L103.379 42.3089H103.984C106.75 42.3089 109 40.0588 109 37.2931V34.4852C109 32.116 107.366 30.3963 105.115 30.3963ZM35.5363 21.3605C36.3742 19.3187 38.8662 17.6484 41.0728 17.6484H82.4767C84.6837 17.6484 87.1753 19.3187 88.0132 21.3605L95.4953 39.585C96.3332 41.6269 95.2132 43.2971 93.0062 43.2971H54.5657C54.1725 42.8579 53.7696 42.4255 53.3498 42.0053C47.4463 36.1022 39.5985 32.8517 31.2515 32.8517C31.105 32.8517 30.9605 32.8601 30.8144 32.8622L35.5363 21.3605ZM31.2519 86.0022C25.4029 86.0022 19.904 83.7238 15.7679 79.5877C11.6317 75.452 9.35421 69.9535 9.35421 64.104C9.35421 58.2546 11.6322 52.7561 15.7679 48.6199C19.904 44.4842 25.4029 42.2063 31.2519 42.2063C37.101 42.2063 42.5999 44.4842 46.736 48.6199C50.8717 52.7561 53.1497 58.2546 53.1497 64.104C53.1497 69.9535 50.8721 75.452 46.736 79.5877C42.5995 83.7238 37.101 86.0022 31.2519 86.0022ZM96.8839 62.6365C96.8839 63.74 95.981 64.6429 94.8775 64.6429H80.6654C79.5619 64.6429 78.659 63.74 78.659 62.6365V55.8153C78.659 54.7118 79.5619 53.8089 80.6654 53.8089H94.8775C95.981 53.8089 96.8839 54.7118 96.8839 55.8153V62.6365Z" fill="#283236"/>
<path d="M45.6747 51.3781C43.8867 50.0655 41.3726 50.4498 40.0592 52.2383L28.5905 67.8554L21.5692 62.7484C19.7756 61.443 17.2628 61.8396 15.9579 63.6344C14.653 65.4284 15.0495 67.9407 16.8439 69.2457L26.2315 76.0732C27.1327 76.7294 28.1809 77.0458 29.2206 77.0458C30.7891 77.0458 32.3385 76.3261 33.3335 74.9705L46.5354 56.994C47.8484 55.2059 47.4632 52.6914 45.6747 51.3781Z" fill="#0D688D"/>
</g>
<defs>
<clipPath id="clip0_8_2">
<rect width="109" height="109" fill="white"/>
</clipPath>
</defs>
</svg>
