<svg width="109" height="109" viewBox="0 0 109 109" fill="none" xmlns="http://www.w3.org/2000/svg">
<path d="M52.6833 83.8719L48.545 76.3H54.4055H60.455L56.3167 83.8719L60.6585 98.1H98.1C98.1 72.6667 69.0333 79.9333 65.4 69.0333V61.7667C67.035 60.9564 71.7111 55.3902 72.2016 51.0411C73.4878 50.943 75.5079 49.7621 76.1038 45.1006C76.4235 42.5972 75.1519 41.1911 74.3816 40.7478C74.3816 40.7478 76.3 37.1036 76.3 32.7036C76.3 23.8819 72.8374 16.3536 65.4 16.3536C65.4 16.3536 62.8167 10.9036 54.5 10.9036C39.0874 10.9036 32.7 20.7899 32.7 32.7036C32.7 36.7148 34.6184 40.7478 34.6184 40.7478C33.8481 41.1911 32.5765 42.6008 32.8962 45.1006C33.4921 49.7621 35.5122 50.943 36.7984 51.0411C37.2889 55.3902 41.965 60.9564 43.6 61.7667V69.0333C39.9667 79.9333 10.9 72.6667 10.9 98.1H48.3415L52.6833 83.8719Z" fill="#283236"/>
<path d="M70.85 76.3H61.7667V69.0333H64.9967C66.3774 69.0333 67.6418 69.8181 68.2522 71.0535L70.85 76.3Z" fill="#283236"/>
<path d="M38.15 76.3H47.2333V69.0333H44.0033C42.6226 69.0333 41.3582 69.8181 40.7478 71.0535L38.15 76.3Z" fill="#283236"/>
</svg>
