<svg width="109" height="109" viewBox="0 0 109 109" fill="none" xmlns="http://www.w3.org/2000/svg">
<path d="M43.9396 100.389L42.1821 97.0364L40.4277 100.389H41.3048V103.74H40.7458V104.699H43.62V103.74H43.0607V100.389H43.9396Z" fill="#0D688D"/>
<path d="M38.8906 100.389L37.1332 97.0364L35.379 100.389H36.2561V103.74H35.6971V104.699H38.5711V103.74H38.012V100.389H38.8906Z" fill="#0D688D"/>
<path d="M91.6758 89.6333C91.6507 86.5343 91.6143 83.5879 91.5623 81.314C91.4584 76.9834 90.7704 73.3061 87.6209 70.0872C85.1028 67.514 81.895 66.048 78.9407 65.037C77.4619 64.5331 76.0384 64.1442 74.7863 63.8054C73.5358 63.4652 72.4509 63.1693 71.6996 62.8875C70.2226 62.3363 68.6587 61.6261 67.5706 60.8607C67.0256 60.4812 66.6067 60.0905 66.3627 59.7567C66.117 59.4165 66.0508 59.1804 66.0478 58.9756C66.0478 57.5537 66.0478 55.7756 66.0478 53.437C67.9391 51.3333 70.6571 48.0718 71.772 42.9034C72.1625 42.7269 72.5482 42.5287 72.9199 42.2703C73.8443 41.6325 74.6284 40.7049 75.2945 39.4435C75.9638 38.179 76.5561 36.5601 77.189 34.3461C77.5088 33.2233 77.657 32.2502 77.657 31.3807C77.6599 30.3791 77.4522 29.5113 77.0741 28.806C76.5074 27.7384 75.5877 27.1431 74.8428 26.8738C74.712 26.8249 74.5986 26.8014 74.4789 26.7682H74.9166C74.9166 26.7682 73.7938 14.94 73.7938 10.7874C73.7943 6.63601 61.7598 0 54.5015 0C47.2432 0 35.2089 6.63601 35.2089 10.7872C35.2089 14.9398 34.0861 26.768 34.0861 26.768H34.3808C34.3744 26.7838 34.3616 26.8089 34.3569 26.8246C34.0499 26.9192 33.7238 27.0437 33.3759 27.2562C32.8422 27.5853 32.3036 28.1003 31.9289 28.8058C31.5508 29.5113 31.343 30.3791 31.3445 31.3805C31.3462 32.2499 31.4942 33.2246 31.8139 34.3459C32.6595 37.294 33.4249 39.1978 34.414 40.5946C34.9083 41.2891 35.4706 41.8451 36.083 42.2701C36.4547 42.5285 36.8407 42.7267 37.2312 42.9032C38.3461 48.0718 41.0643 51.333 42.9541 53.4368C42.9541 55.7754 42.9541 57.5535 42.9541 58.9754C42.9541 59.1502 42.8847 59.4022 42.6139 59.7629C42.2171 60.2968 41.3919 60.944 40.4124 61.4949C39.4361 62.0508 38.3131 62.5313 37.3306 62.8762C36.3117 63.2398 34.7369 63.6162 32.9495 64.1092C30.2613 64.8541 27.0629 65.8699 24.2031 67.7437C18.5104 71.4712 17.4726 77.0507 17.4521 83.3563C17.4349 89.1201 17.3135 94.8837 17.2742 100.647C17.2599 102.748 17.2693 104.849 17.2693 106.948C17.2693 107.339 17.2693 107.553 17.2693 107.553L17.2705 109H29.7821H54.5015H79.2191H91.7307L91.7324 107.553C91.7324 107.553 91.7341 106.893 91.7341 105.77C91.7341 102.622 91.728 95.8285 91.6758 89.6333ZM66.2479 64.607L72.6146 71.3471L66.6541 75.9298L67.9881 79.0227H59.2198L66.2479 64.607ZM49.2322 10.7195H59.7707V15.4737H49.2322V10.7195ZM39.9002 41.5993L39.7537 40.7711L38.9615 40.4875C38.4576 40.3079 38.0734 40.1222 37.7363 39.8906C37.242 39.5393 36.7932 39.0637 36.2687 38.0857C35.749 37.1109 35.201 35.659 34.5994 33.552C34.3363 32.6306 34.2417 31.9127 34.2417 31.3803C34.2434 30.7629 34.3614 30.4025 34.4827 30.1724C34.6654 29.8415 34.8891 29.6999 35.1742 29.5865C35.409 29.4966 35.653 29.473 35.7458 29.4698L36.1835 29.5235V31.3581L39.4497 37.9267V26.0448C42.9945 24.6087 48.0637 22.7331 53.7236 22.7331C58.1408 22.7331 62.4589 23.878 66.0289 25.0638L69.5533 26.7252V37.9267L72.8194 31.3581V29.4983L73.2227 29.4685C73.2933 29.4639 73.7817 29.5079 74.0934 29.7174C74.2603 29.823 74.3957 29.9458 74.5187 30.1726C74.6401 30.4025 74.758 30.7631 74.7597 31.3805C74.7597 31.9144 74.6652 32.6308 74.4023 33.5522C73.6039 36.3662 72.8874 38.0025 72.2306 38.9096C71.9015 39.3677 71.6006 39.656 71.2653 39.8906C70.93 40.122 70.5458 40.3079 70.0416 40.4875L69.248 40.7711L69.1015 41.5993C68.174 46.7929 65.5 49.7125 63.5236 51.914L63.1521 52.3266V52.8825C63.1521 55.5172 63.1521 57.4383 63.1521 58.9754C63.1489 59.9298 63.5206 60.7896 64.0309 61.4745C64.1348 61.6133 64.2559 61.7359 64.3694 61.8667L61.5665 67.6177H47.439L44.6204 61.8398C44.7164 61.7278 44.8314 61.6321 44.9212 61.5137C45.4472 60.8239 45.8517 59.9609 45.8517 58.9752C45.8517 57.4381 45.8517 55.517 45.8517 52.8822V52.3264L45.4802 51.9138C43.5033 49.7127 40.8277 46.7929 39.9002 41.5993ZM42.7552 64.607L49.7834 79.0227H41.0151L42.349 75.9298L36.3885 71.3471L42.7552 64.607ZM76.3232 106.102H32.6798V81.9186H51.3173V88.8114H57.684V81.9186H76.323V106.102H76.3232Z" fill="#283236"/>
</svg>
