<svg width="108" height="108" viewBox="0 0 108 108" fill="none" xmlns="http://www.w3.org/2000/svg">
<path d="M78.3866 29.5594C78.0648 21.1091 76.2306 15.5242 73.4733 11.7101H73.478C71.5498 8.68509 67.3787 5.46282 64.8164 3.89631C47.9559 -6.39052 38.8199 6.76394 37.7677 8.40091C36.2176 8.95518 26.5673 13.2014 29.3597 28.2183C29.3292 28.7162 29.3057 29.2259 29.2846 29.7449C27.2343 30.6937 25.6983 32.8944 26.1069 37.8757C26.5438 43.1577 29.1977 45.5368 32.0794 46.1522C36.1589 56.1478 44.2545 64.4007 53.8368 64.4007C63.3908 64.4007 71.4723 56.1901 75.5636 46.2273C78.5956 45.7482 81.4797 43.3996 81.9306 37.8781C82.3675 32.6008 80.6154 30.4119 78.3866 29.5594ZM53.8415 59.7529C43.9069 59.7529 35.7127 47.6247 34.1556 36.1495C34.8977 32.016 37.1899 23.1219 43.7684 16.5646C48.8249 22.0298 58.076 28.3193 73.6495 27.7838C73.7434 29.1883 73.7927 30.6984 73.7927 32.319C73.7904 44.7454 64.8916 59.7529 53.8415 59.7529Z" fill="#283236"/>
<path d="M53.1651 36.9128C53.1651 36.5981 53.1439 36.3069 53.1064 36.0438H54.9406C54.903 36.3069 54.8842 36.5981 54.8842 36.9128C54.8842 41.8613 59.7951 41.8543 62.1578 41.8543C64.5182 41.8543 69.4314 41.8472 69.4314 36.8987C69.4314 31.9503 64.5182 31.9409 62.1578 31.9409C60.4903 31.9409 57.5569 31.9667 55.9716 33.6765H52.0753C50.4924 31.9667 47.5566 31.9409 45.8915 31.9409C43.5288 31.9409 38.6179 31.9456 38.6179 36.894C38.6179 41.8425 43.5288 41.8425 45.8915 41.8425C48.2495 41.8472 53.1651 41.8637 53.1651 36.9128ZM62.1555 34.273C66.3642 34.273 67.1016 35.1209 67.1016 36.8987C67.1016 38.6766 66.3618 39.5245 62.1555 39.5245C57.9468 39.5245 57.2093 38.679 57.2093 36.8987C57.207 35.1185 57.9468 34.273 62.1555 34.273ZM40.9407 36.9011C40.9407 35.1232 41.6805 34.2754 45.8891 34.2754C50.0978 34.2754 50.8376 35.1232 50.8376 36.9011C50.8376 38.679 50.0955 39.5268 45.8891 39.5268C41.6828 39.5245 40.9407 38.679 40.9407 36.9011Z" fill="#283236"/>
<path d="M75.364 63.5811L72.548 62.8835L53.8978 105.306L35.2547 62.8953L32.5444 63.5834C21.4732 66.3571 13.7463 76.301 13.7463 87.7152V102.699C13.7463 105.647 16.0573 108 19.0095 108H88.8026C91.7548 108 94.256 105.647 94.256 102.697V87.7129C94.2537 76.2987 86.4352 66.3548 75.364 63.5811ZM67.2472 92.8751L72.4963 87.1985C73.734 85.8528 75.8619 85.8387 77.0972 87.1821L82.3487 92.8751H67.2472Z" fill="#283236"/>
<path d="M54.0834 97.5464L60.3118 81.731L57.4254 78.8422C59.2479 78.6097 60.5256 76.8295 60.0817 74.9788L58.8017 69.6498C58.4588 68.2313 57.1929 67.2191 55.7368 67.2191H52.3125C50.8541 67.2191 49.5882 68.2336 49.2453 69.6498L47.9676 74.9718C47.5238 76.8201 48.799 78.605 50.6239 78.8375L47.7351 81.7287L54.0834 97.5464Z" fill="#283236"/>
</svg>
