<svg width="109" height="109" viewBox="0 0 109 109" fill="none" xmlns="http://www.w3.org/2000/svg">
<g clip-path="url(#clip0_8_30)">
<path d="M54.5 56.3934C61.3989 56.3934 77.6192 48.0909 77.6192 28.1965C77.6192 25.4215 77.5517 22.7409 77.323 20.2081C76.9475 15.2231 75.9266 10.8055 73.3843 7.41968C70.124 2.81276 64.419 0 54.5 0C44.5827 0 38.8782 2.8119 35.6179 7.4171C33.0743 10.8032 32.0525 15.2225 31.677 20.2089C31.4486 22.7415 31.3808 25.4218 31.3808 28.1965C31.3808 48.0909 47.6011 56.3934 54.5 56.3934ZM45.9304 9.3245C46.4343 8.40168 47.3995 7.82775 48.4489 7.82661C49.6592 7.82661 50.6949 8.57727 51.1193 9.63506H57.8775C58.02 9.27817 58.2333 8.95045 58.5127 8.67049C59.054 8.12716 59.7755 7.82718 60.5425 7.82632C61.5954 7.82604 62.5605 8.39682 63.0658 9.3162C63.0956 9.36997 63.0944 9.43459 63.063 9.4875C63.0321 9.5404 62.9752 9.57272 62.9143 9.57272L60.3511 9.57701C60.306 9.6851 60.2199 9.98508 60.221 10.7C60.2222 11.4149 60.3094 11.7146 60.3552 11.8224L62.9183 11.8184C62.9797 11.8187 63.0355 11.851 63.067 11.9036C63.0987 11.9562 63.0993 12.0214 63.0704 12.0752C62.566 12.9974 61.6008 13.572 60.5513 13.5731L60.5473 13.5725C59.3403 13.5725 58.3053 12.8224 57.881 11.7641H51.1227C50.9803 12.121 50.7676 12.449 50.4882 12.7286C49.9468 13.272 49.2253 13.5722 48.4578 13.5737C48.4578 13.5734 48.4532 13.5737 48.4532 13.5737C47.4055 13.5737 46.4398 13.0029 45.9342 12.0835C45.9044 12.0297 45.9061 11.9645 45.937 11.9119C45.9676 11.8593 46.0248 11.8264 46.086 11.8264L48.6486 11.8224C48.6937 11.7146 48.7804 11.4146 48.7787 10.6997C48.7775 9.98451 48.6903 9.68482 48.6446 9.57701L46.0814 9.5813C46.0205 9.58072 45.9642 9.5487 45.9327 9.49608C45.9021 9.44346 45.901 9.37883 45.9304 9.3245ZM34.8204 23.883C35.0866 24.4658 36.2182 26.7055 37.9697 26.9154C39.9832 27.1568 43.3253 19.7846 54.5 19.7668C65.6744 19.7849 69.0168 27.1568 71.0303 26.9154C72.7818 26.7052 73.9134 24.4655 74.1796 23.883C74.2339 25.3106 74.2537 26.7556 74.2537 28.1965C74.2537 37.9211 69.9599 43.9464 66.3576 47.2885C61.8187 51.4996 56.7797 53.0281 54.5 53.0281C52.2203 53.0281 47.181 51.4996 42.6424 47.2885C39.0401 43.9464 34.7463 37.9211 34.7463 28.1965C34.7463 26.7556 34.766 25.3106 34.8204 23.883Z" fill="#283236"/>
<path d="M97.4215 85.3114C96.2413 77.9724 93.8115 68.5186 88.9375 65.1585C85.6105 62.8648 74.0017 56.6625 69.0445 54.0141L68.9536 53.9658C68.3868 53.663 67.6948 53.7236 67.1892 54.1205C64.5915 56.1598 61.7461 57.5341 58.732 58.205C58.1995 58.3237 57.7626 58.702 57.569 59.2119L54.4997 67.3021L51.4304 59.2119C51.2368 58.702 50.7999 58.3234 50.2674 58.205C47.2533 57.5341 44.408 56.1598 41.8102 54.1205C41.3047 53.7236 40.6126 53.6627 40.0458 53.9658C35.1461 56.5841 23.3917 62.9148 20.0765 65.1488C14.4659 68.929 12.0129 82.6079 11.5782 85.3117C11.535 85.5799 11.5599 85.8542 11.6505 86.1104C11.8147 86.5734 15.286 95.539 36.9808 98.8102C38.8771 102.125 41.7096 104.881 45.0966 106.673C47.974 108.196 51.2334 109.001 54.5232 109.001C55.8114 109.001 57.1011 108.877 58.3571 108.633C62.6986 107.788 66.7082 105.481 69.647 102.136C70.5501 101.108 71.3408 99.9915 72.0128 98.811C93.7125 95.5401 97.1847 86.5734 97.3489 86.1104C97.4398 85.8539 97.4647 85.5794 97.4215 85.3114ZM71.7552 89.8037C71.5436 93.6428 70.0214 97.3466 67.4834 100.234C64.9744 103.09 61.5402 105.079 57.8072 105.805C56.7234 106.016 55.623 106.12 54.5234 106.12C51.7233 106.12 48.9302 105.443 46.444 104.127C43.1097 102.363 40.3953 99.5053 38.8093 96.0818C37.161 92.5229 36.7815 88.4287 37.7389 84.6248C38.6638 80.947 40.8257 77.6312 43.7983 75.28C46.8312 72.881 50.6326 71.5587 54.4994 71.5587C56.2281 71.5587 57.955 71.817 59.6059 72.3288C63.2202 73.4484 66.4119 75.7762 68.601 78.86C70.8518 82.0311 71.9691 85.9214 71.7552 89.8037Z" fill="#283236"/>
<path d="M57.2107 88.8405C58.8264 89.1605 60.4326 89.6409 61.9391 90.3092C63.3947 90.955 64.699 91.866 66.0524 92.6919C66.1454 92.7494 66.2395 92.8046 66.3336 92.8603C66.7622 91.5984 66.9981 90.2475 66.9981 88.8405C66.9981 87.4336 66.7622 86.0827 66.3336 84.8207C64.9469 85.6483 63.6286 86.5911 62.1587 87.2723C60.5925 87.9989 58.903 88.5057 57.2107 88.8405Z" fill="#283236"/>
<path d="M66.0525 92.6919C66.214 92.7912 65.7522 92.5086 66.0525 92.6919Z" fill="#283236"/>
<path d="M47.0609 90.3093C48.5676 89.641 50.1733 89.1605 51.7893 88.8405C50.0721 88.5008 48.3546 87.9846 46.768 87.2386C45.3273 86.5605 44.0302 85.6346 42.6664 84.8204C42.2378 86.0824 42.0018 87.4336 42.0018 88.8405C42.0018 90.2475 42.2378 91.5987 42.6664 92.8607C42.7602 92.8046 42.8546 92.7494 42.9472 92.6919C44.301 91.8661 45.6062 90.955 47.0609 90.3093Z" fill="#283236"/>
<path d="M42.9473 92.6919C43.2475 92.5086 42.7863 92.7912 42.9473 92.6919Z" fill="#283236"/>
<path d="M56.7972 76.5569C56.8383 78.192 57.0176 79.8243 56.8824 81.4595C56.7357 83.2293 56.333 85.0046 55.7617 86.6841C56.9399 85.366 58.2862 84.1492 59.7518 83.1555C61.1147 82.2318 62.6309 81.5856 64.0807 80.8177C62.256 78.6407 59.7034 77.097 56.7972 76.5569Z" fill="#283236"/>
<path d="M53.2383 86.6838C52.6667 85.0046 52.2643 83.2293 52.1173 81.4592C51.9826 79.824 52.1619 78.1917 52.2028 76.5566C49.2966 77.0968 46.7443 78.6404 44.9193 80.8172C46.3934 81.5981 47.9348 82.2533 49.3154 83.2007C50.753 84.1879 52.0767 85.3849 53.2383 86.6838Z" fill="#283236"/>
<path d="M52.1173 96.2219C52.2646 94.4529 52.6649 92.6759 53.2383 90.9976C52.059 92.315 50.7132 93.5321 49.2476 94.5258C47.8853 95.4498 46.3697 96.0961 44.9193 96.8639C46.744 99.0404 49.2966 100.584 52.2025 101.124C52.1616 99.4891 51.9826 97.8565 52.1173 96.2219Z" fill="#283236"/>
<path d="M55.762 90.9976C56.3353 92.6759 56.736 94.4526 56.8827 96.2219C57.0179 97.8565 56.8389 99.489 56.7974 101.124C59.7034 100.584 62.256 99.0404 64.0807 96.8639C62.6071 96.0829 61.0661 95.4275 59.6857 94.4804C58.247 93.4932 56.9241 92.2961 55.762 90.9976Z" fill="#283236"/>
</g>
<defs>
<clipPath id="clip0_8_30">
<rect width="109" height="109" fill="white"/>
</clipPath>
</defs>
</svg>
